<mxfile host="www.draw.io" modified="2020-01-10T09:56:36.454Z" agent="Mozilla/5.0 (Macintosh; Intel Mac OS X 10_15_1) AppleWebKit/537.36 (KHTML, like Gecko) Chrome/79.0.3945.117 Safari/537.36" etag="-PwqAxX-rx2fTc8isANu" version="12.5.1" type="github">
  <diagram id="-fwhPAeI0vTTsdXvRMv6" name="第 1 页">
    <mxGraphModel dx="1810" dy="492" grid="1" gridSize="10" guides="1" tooltips="1" connect="1" arrows="1" fold="1" page="1" pageScale="1" pageWidth="827" pageHeight="1169" math="0" shadow="0">
      <root>
        <mxCell id="0"/>
        <mxCell id="1" parent="0"/>
        <mxCell id="Nz7b2B-T4ap1JmuyuAuI-36" value="YzServiceExecutor" style="shape=umlLifeline;perimeter=lifelinePerimeter;whiteSpace=wrap;html=1;container=1;collapsible=0;recursiveResize=0;outlineConnect=0;" parent="1" vertex="1">
          <mxGeometry x="120" y="120" width="110" height="630" as="geometry"/>
        </mxCell>
        <mxCell id="Nz7b2B-T4ap1JmuyuAuI-37" value="" style="html=1;points=[];perimeter=orthogonalPerimeter;" parent="Nz7b2B-T4ap1JmuyuAuI-36" vertex="1">
          <mxGeometry x="50" y="70" width="10" height="80" as="geometry"/>
        </mxCell>
        <mxCell id="Nz7b2B-T4ap1JmuyuAuI-74" value="" style="html=1;points=[];perimeter=orthogonalPerimeter;" parent="Nz7b2B-T4ap1JmuyuAuI-36" vertex="1">
          <mxGeometry x="50" y="370.25" width="10" height="80" as="geometry"/>
        </mxCell>
        <mxCell id="Y-8gsAqGTMaJMT4dQ_MY-1" value="" style="html=1;points=[];perimeter=orthogonalPerimeter;" vertex="1" parent="Nz7b2B-T4ap1JmuyuAuI-36">
          <mxGeometry x="50" y="200" width="10" height="40" as="geometry"/>
        </mxCell>
        <mxCell id="Y-8gsAqGTMaJMT4dQ_MY-2" value="_execLocal" style="edgeStyle=orthogonalEdgeStyle;html=1;align=left;spacingLeft=2;endArrow=block;rounded=0;entryX=1;entryY=0;" edge="1" target="Y-8gsAqGTMaJMT4dQ_MY-1" parent="Nz7b2B-T4ap1JmuyuAuI-36">
          <mxGeometry relative="1" as="geometry">
            <mxPoint x="55" y="180" as="sourcePoint"/>
            <Array as="points">
              <mxPoint x="80" y="180"/>
            </Array>
          </mxGeometry>
        </mxCell>
        <mxCell id="Y-8gsAqGTMaJMT4dQ_MY-3" value="" style="html=1;points=[];perimeter=orthogonalPerimeter;" vertex="1" parent="Nz7b2B-T4ap1JmuyuAuI-36">
          <mxGeometry x="50" y="280" width="10" height="40" as="geometry"/>
        </mxCell>
        <mxCell id="Y-8gsAqGTMaJMT4dQ_MY-4" value="_execRemote" style="edgeStyle=orthogonalEdgeStyle;html=1;align=left;spacingLeft=2;endArrow=block;rounded=0;entryX=1;entryY=0;" edge="1" target="Y-8gsAqGTMaJMT4dQ_MY-3" parent="Nz7b2B-T4ap1JmuyuAuI-36">
          <mxGeometry relative="1" as="geometry">
            <mxPoint x="55" y="260" as="sourcePoint"/>
            <Array as="points">
              <mxPoint x="80" y="260"/>
            </Array>
          </mxGeometry>
        </mxCell>
        <mxCell id="Nz7b2B-T4ap1JmuyuAuI-39" value="TraceInvokeFilter" style="shape=umlLifeline;perimeter=lifelinePerimeter;whiteSpace=wrap;html=1;container=1;collapsible=0;recursiveResize=0;outlineConnect=0;" parent="1" vertex="1">
          <mxGeometry x="300" y="120" width="100" height="620" as="geometry"/>
        </mxCell>
        <mxCell id="Nz7b2B-T4ap1JmuyuAuI-53" value="" style="html=1;points=[];perimeter=orthogonalPerimeter;" parent="Nz7b2B-T4ap1JmuyuAuI-39" vertex="1">
          <mxGeometry x="45" y="100" width="10" height="80" as="geometry"/>
        </mxCell>
        <mxCell id="Nz7b2B-T4ap1JmuyuAuI-57" value="&lt;font style=&quot;font-size: 6px&quot;&gt;TraceTransfer.getTrace&lt;br&gt;(YzServiceInfo.getAppName())&lt;/font&gt;" style="html=1;verticalAlign=bottom;startArrow=oval;startFill=1;endArrow=block;startSize=8;" parent="Nz7b2B-T4ap1JmuyuAuI-39" target="Nz7b2B-T4ap1JmuyuAuI-55" edge="1">
          <mxGeometry width="60" relative="1" as="geometry">
            <mxPoint x="50" y="120" as="sourcePoint"/>
            <mxPoint x="150" y="120" as="targetPoint"/>
          </mxGeometry>
        </mxCell>
        <mxCell id="Nz7b2B-T4ap1JmuyuAuI-64" value="" style="html=1;points=[];perimeter=orthogonalPerimeter;" parent="Nz7b2B-T4ap1JmuyuAuI-39" vertex="1">
          <mxGeometry x="45" y="370.65" width="10" height="129.6" as="geometry"/>
        </mxCell>
        <mxCell id="Nz7b2B-T4ap1JmuyuAuI-55" value="TraceTransfer" style="shape=umlLifeline;perimeter=lifelinePerimeter;whiteSpace=wrap;html=1;container=1;collapsible=0;recursiveResize=0;outlineConnect=0;" parent="1" vertex="1">
          <mxGeometry x="500" y="120" width="100" height="600" as="geometry"/>
        </mxCell>
        <mxCell id="Nz7b2B-T4ap1JmuyuAuI-59" value="" style="html=1;points=[];perimeter=orthogonalPerimeter;" parent="Nz7b2B-T4ap1JmuyuAuI-55" vertex="1">
          <mxGeometry x="45" y="120" width="10" height="50" as="geometry"/>
        </mxCell>
        <mxCell id="Nz7b2B-T4ap1JmuyuAuI-65" value="" style="html=1;points=[];perimeter=orthogonalPerimeter;" parent="Nz7b2B-T4ap1JmuyuAuI-55" vertex="1">
          <mxGeometry x="45" y="370.65" width="10" height="40" as="geometry"/>
        </mxCell>
        <mxCell id="Nz7b2B-T4ap1JmuyuAuI-78" value="" style="html=1;points=[];perimeter=orthogonalPerimeter;" parent="Nz7b2B-T4ap1JmuyuAuI-55" vertex="1">
          <mxGeometry x="45" y="450.25" width="10" height="40" as="geometry"/>
        </mxCell>
        <mxCell id="Nz7b2B-T4ap1JmuyuAuI-82" value="sendTace" style="html=1;verticalAlign=bottom;endArrow=block;entryX=0;entryY=0.023;entryDx=0;entryDy=0;entryPerimeter=0;" parent="Nz7b2B-T4ap1JmuyuAuI-55" target="Nz7b2B-T4ap1JmuyuAuI-83" edge="1">
          <mxGeometry width="80" relative="1" as="geometry">
            <mxPoint x="50" y="382.25" as="sourcePoint"/>
            <mxPoint x="140" y="380.25" as="targetPoint"/>
          </mxGeometry>
        </mxCell>
        <mxCell id="Nz7b2B-T4ap1JmuyuAuI-67" value="return TraceTransfer" style="html=1;verticalAlign=bottom;endArrow=open;dashed=1;endSize=8;exitX=0;exitY=0.95;" parent="1" source="Nz7b2B-T4ap1JmuyuAuI-65" target="Nz7b2B-T4ap1JmuyuAuI-64" edge="1">
          <mxGeometry relative="1" as="geometry">
            <mxPoint x="415" y="566.65" as="targetPoint"/>
          </mxGeometry>
        </mxCell>
        <mxCell id="Nz7b2B-T4ap1JmuyuAuI-66" value="TraceTransfer.getTrace()" style="html=1;verticalAlign=bottom;endArrow=block;entryX=0;entryY=0;exitX=0.743;exitY=-0.005;exitDx=0;exitDy=0;exitPerimeter=0;" parent="1" source="Nz7b2B-T4ap1JmuyuAuI-64" target="Nz7b2B-T4ap1JmuyuAuI-65" edge="1">
          <mxGeometry relative="1" as="geometry">
            <mxPoint x="190" y="490.65" as="sourcePoint"/>
          </mxGeometry>
        </mxCell>
        <mxCell id="Nz7b2B-T4ap1JmuyuAuI-69" value="ProxyController" style="shape=umlLifeline;perimeter=lifelinePerimeter;whiteSpace=wrap;html=1;container=1;collapsible=0;recursiveResize=0;outlineConnect=0;" parent="1" vertex="1">
          <mxGeometry x="-30" y="120" width="120" height="630" as="geometry"/>
        </mxCell>
        <mxCell id="Nz7b2B-T4ap1JmuyuAuI-70" value="" style="html=1;points=[];perimeter=orthogonalPerimeter;" parent="Nz7b2B-T4ap1JmuyuAuI-69" vertex="1">
          <mxGeometry x="55" y="70" width="10" height="80" as="geometry"/>
        </mxCell>
        <mxCell id="Nz7b2B-T4ap1JmuyuAuI-68" value="preExecute" style="html=1;verticalAlign=bottom;endArrow=block;entryX=-0.043;entryY=0.004;entryDx=0;entryDy=0;entryPerimeter=0;" parent="1" source="Nz7b2B-T4ap1JmuyuAuI-37" target="Nz7b2B-T4ap1JmuyuAuI-53" edge="1">
          <mxGeometry width="80" relative="1" as="geometry">
            <mxPoint x="190" y="220" as="sourcePoint"/>
            <mxPoint x="250" y="220" as="targetPoint"/>
          </mxGeometry>
        </mxCell>
        <mxCell id="Nz7b2B-T4ap1JmuyuAuI-73" value="execute" style="html=1;verticalAlign=bottom;endArrow=block;exitX=1;exitY=-0.012;exitDx=0;exitDy=0;exitPerimeter=0;" parent="1" source="Nz7b2B-T4ap1JmuyuAuI-70" edge="1">
          <mxGeometry width="80" relative="1" as="geometry">
            <mxPoint x="30" y="210" as="sourcePoint"/>
            <mxPoint x="170" y="190" as="targetPoint"/>
          </mxGeometry>
        </mxCell>
        <mxCell id="Nz7b2B-T4ap1JmuyuAuI-76" value="postExecute" style="html=1;verticalAlign=bottom;endArrow=block;entryX=0;entryY=0;exitX=0.917;exitY=0.002;exitDx=0;exitDy=0;exitPerimeter=0;" parent="1" source="Nz7b2B-T4ap1JmuyuAuI-74" edge="1">
          <mxGeometry relative="1" as="geometry">
            <mxPoint x="275" y="490.25" as="sourcePoint"/>
            <mxPoint x="345" y="490.25" as="targetPoint"/>
          </mxGeometry>
        </mxCell>
        <mxCell id="Nz7b2B-T4ap1JmuyuAuI-79" value="getTrace().remove()" style="html=1;verticalAlign=bottom;endArrow=block;entryX=0;entryY=0;exitX=1.167;exitY=0.615;exitDx=0;exitDy=0;exitPerimeter=0;" parent="1" source="Nz7b2B-T4ap1JmuyuAuI-64" target="Nz7b2B-T4ap1JmuyuAuI-78" edge="1">
          <mxGeometry relative="1" as="geometry">
            <mxPoint x="475" y="570.25" as="sourcePoint"/>
          </mxGeometry>
        </mxCell>
        <mxCell id="Nz7b2B-T4ap1JmuyuAuI-81" value="TraceSender" style="shape=umlLifeline;perimeter=lifelinePerimeter;whiteSpace=wrap;html=1;container=1;collapsible=0;recursiveResize=0;outlineConnect=0;" parent="1" vertex="1">
          <mxGeometry x="650" y="120" width="100" height="600" as="geometry"/>
        </mxCell>
        <mxCell id="Nz7b2B-T4ap1JmuyuAuI-83" value="" style="html=1;points=[];perimeter=orthogonalPerimeter;" parent="Nz7b2B-T4ap1JmuyuAuI-81" vertex="1">
          <mxGeometry x="45" y="380.25" width="10" height="120" as="geometry"/>
        </mxCell>
        <mxCell id="Nz7b2B-T4ap1JmuyuAuI-84" value="Event" style="shape=umlLifeline;perimeter=lifelinePerimeter;whiteSpace=wrap;html=1;container=1;collapsible=0;recursiveResize=0;outlineConnect=0;" parent="1" vertex="1">
          <mxGeometry x="790" y="120" width="100" height="600" as="geometry"/>
        </mxCell>
        <mxCell id="Nz7b2B-T4ap1JmuyuAuI-85" value="" style="html=1;points=[];perimeter=orthogonalPerimeter;" parent="Nz7b2B-T4ap1JmuyuAuI-84" vertex="1">
          <mxGeometry x="45" y="395.25" width="10" height="80" as="geometry"/>
        </mxCell>
        <mxCell id="Nz7b2B-T4ap1JmuyuAuI-86" value="new" style="html=1;verticalAlign=bottom;endArrow=block;entryX=0;entryY=0;" parent="Nz7b2B-T4ap1JmuyuAuI-84" target="Nz7b2B-T4ap1JmuyuAuI-85" edge="1">
          <mxGeometry relative="1" as="geometry">
            <mxPoint x="-80" y="395.25" as="sourcePoint"/>
          </mxGeometry>
        </mxCell>
        <mxCell id="Nz7b2B-T4ap1JmuyuAuI-87" value="return Event" style="html=1;verticalAlign=bottom;endArrow=open;dashed=1;endSize=8;exitX=0;exitY=0.95;entryX=1.167;entryY=0.744;entryDx=0;entryDy=0;entryPerimeter=0;" parent="1" source="Nz7b2B-T4ap1JmuyuAuI-85" target="Nz7b2B-T4ap1JmuyuAuI-83" edge="1">
          <mxGeometry relative="1" as="geometry">
            <mxPoint x="765" y="591.25" as="targetPoint"/>
          </mxGeometry>
        </mxCell>
        <mxCell id="Nz7b2B-T4ap1JmuyuAuI-88" value="MQProducer&lt;br&gt;(kafka)" style="shape=umlLifeline;perimeter=lifelinePerimeter;whiteSpace=wrap;html=1;container=1;collapsible=0;recursiveResize=0;outlineConnect=0;" parent="1" vertex="1">
          <mxGeometry x="950" y="120" width="100" height="610" as="geometry"/>
        </mxCell>
        <mxCell id="Nz7b2B-T4ap1JmuyuAuI-89" value="" style="html=1;points=[];perimeter=orthogonalPerimeter;" parent="Nz7b2B-T4ap1JmuyuAuI-88" vertex="1">
          <mxGeometry x="45" y="504.58" width="10" height="55.42" as="geometry"/>
        </mxCell>
        <mxCell id="Nz7b2B-T4ap1JmuyuAuI-91" value="send" style="html=1;verticalAlign=bottom;endArrow=block;entryX=0.083;entryY=-0.019;entryDx=0;entryDy=0;entryPerimeter=0;" parent="1" target="Nz7b2B-T4ap1JmuyuAuI-89" edge="1">
          <mxGeometry width="80" relative="1" as="geometry">
            <mxPoint x="700" y="620.25" as="sourcePoint"/>
            <mxPoint x="990" y="620.25" as="targetPoint"/>
          </mxGeometry>
        </mxCell>
        <mxCell id="Y-8gsAqGTMaJMT4dQ_MY-5" value="&lt;h1&gt;Proxy 调用链路&lt;/h1&gt;&lt;p&gt;&lt;br&gt;&lt;/p&gt;" style="text;html=1;strokeColor=none;fillColor=none;spacing=5;spacingTop=-20;whiteSpace=wrap;overflow=hidden;rounded=0;" vertex="1" parent="1">
          <mxGeometry x="-320" y="120" width="190" height="120" as="geometry"/>
        </mxCell>
        <mxCell id="Y-8gsAqGTMaJMT4dQ_MY-7" value="&lt;h1&gt;资源服务 消耗记录&lt;/h1&gt;&lt;p&gt;&lt;br&gt;&lt;/p&gt;" style="text;html=1;strokeColor=none;fillColor=none;spacing=5;spacingTop=-20;whiteSpace=wrap;overflow=hidden;rounded=0;" vertex="1" parent="1">
          <mxGeometry x="-260" y="1090" width="210" height="120" as="geometry"/>
        </mxCell>
        <mxCell id="Y-8gsAqGTMaJMT4dQ_MY-8" value="RedisExecute" style="shape=umlLifeline;perimeter=lifelinePerimeter;whiteSpace=wrap;html=1;container=1;collapsible=0;recursiveResize=0;outlineConnect=0;" vertex="1" parent="1">
          <mxGeometry x="150" y="1160" width="100" height="280" as="geometry"/>
        </mxCell>
        <mxCell id="Y-8gsAqGTMaJMT4dQ_MY-14" value="" style="html=1;points=[];perimeter=orthogonalPerimeter;" vertex="1" parent="Y-8gsAqGTMaJMT4dQ_MY-8">
          <mxGeometry x="45" y="90" width="10" height="130" as="geometry"/>
        </mxCell>
        <mxCell id="Y-8gsAqGTMaJMT4dQ_MY-15" value="" style="html=1;points=[];perimeter=orthogonalPerimeter;" vertex="1" parent="Y-8gsAqGTMaJMT4dQ_MY-8">
          <mxGeometry x="45" y="140.28" width="10" height="40" as="geometry"/>
        </mxCell>
        <mxCell id="Y-8gsAqGTMaJMT4dQ_MY-16" value="action" style="edgeStyle=orthogonalEdgeStyle;html=1;align=left;spacingLeft=2;endArrow=block;rounded=0;entryX=1;entryY=0;" edge="1" target="Y-8gsAqGTMaJMT4dQ_MY-15" parent="Y-8gsAqGTMaJMT4dQ_MY-8">
          <mxGeometry relative="1" as="geometry">
            <mxPoint x="50" y="120.28" as="sourcePoint"/>
            <Array as="points">
              <mxPoint x="75" y="120.28"/>
            </Array>
          </mxGeometry>
        </mxCell>
        <mxCell id="Y-8gsAqGTMaJMT4dQ_MY-9" value="RedisService" style="shape=umlLifeline;perimeter=lifelinePerimeter;whiteSpace=wrap;html=1;container=1;collapsible=0;recursiveResize=0;outlineConnect=0;" vertex="1" parent="1">
          <mxGeometry y="1090" width="100" height="300" as="geometry"/>
        </mxCell>
        <mxCell id="Y-8gsAqGTMaJMT4dQ_MY-10" value="" style="html=1;points=[];perimeter=orthogonalPerimeter;" vertex="1" parent="Y-8gsAqGTMaJMT4dQ_MY-9">
          <mxGeometry x="45" y="70" width="10" height="50" as="geometry"/>
        </mxCell>
        <mxCell id="Y-8gsAqGTMaJMT4dQ_MY-11" value="new" style="html=1;verticalAlign=bottom;endArrow=block;" edge="1" parent="Y-8gsAqGTMaJMT4dQ_MY-9">
          <mxGeometry width="80" relative="1" as="geometry">
            <mxPoint x="50" y="70" as="sourcePoint"/>
            <mxPoint x="150" y="70" as="targetPoint"/>
          </mxGeometry>
        </mxCell>
        <mxCell id="Y-8gsAqGTMaJMT4dQ_MY-12" value="" style="html=1;points=[];perimeter=orthogonalPerimeter;" vertex="1" parent="Y-8gsAqGTMaJMT4dQ_MY-9">
          <mxGeometry x="45" y="160" width="10" height="70" as="geometry"/>
        </mxCell>
        <mxCell id="Y-8gsAqGTMaJMT4dQ_MY-13" value="execute" style="html=1;verticalAlign=bottom;endArrow=block;entryX=0.741;entryY=0.001;entryDx=0;entryDy=0;entryPerimeter=0;" edge="1" parent="Y-8gsAqGTMaJMT4dQ_MY-9" target="Y-8gsAqGTMaJMT4dQ_MY-14">
          <mxGeometry width="80" relative="1" as="geometry">
            <mxPoint x="50" y="160" as="sourcePoint"/>
            <mxPoint x="190" y="160" as="targetPoint"/>
          </mxGeometry>
        </mxCell>
        <mxCell id="Y-8gsAqGTMaJMT4dQ_MY-17" value="&lt;h1&gt;domain Event and Trace&lt;/h1&gt;" style="text;html=1;strokeColor=none;fillColor=none;spacing=5;spacingTop=-20;whiteSpace=wrap;overflow=hidden;rounded=0;" vertex="1" parent="1">
          <mxGeometry x="-250" y="1650" width="210" height="120" as="geometry"/>
        </mxCell>
        <mxCell id="Y-8gsAqGTMaJMT4dQ_MY-18" value="DomainExecEngine" style="shape=umlLifeline;perimeter=lifelinePerimeter;whiteSpace=wrap;html=1;container=1;collapsible=0;recursiveResize=0;outlineConnect=0;" vertex="1" parent="1">
          <mxGeometry x="27" y="1630" width="115" height="310" as="geometry"/>
        </mxCell>
        <mxCell id="Y-8gsAqGTMaJMT4dQ_MY-19" value="" style="html=1;points=[];perimeter=orthogonalPerimeter;" vertex="1" parent="Y-8gsAqGTMaJMT4dQ_MY-18">
          <mxGeometry x="55" y="100" width="10" height="40" as="geometry"/>
        </mxCell>
        <mxCell id="Y-8gsAqGTMaJMT4dQ_MY-20" value="executeCmds" style="edgeStyle=orthogonalEdgeStyle;html=1;align=left;spacingLeft=2;endArrow=block;rounded=0;entryX=1;entryY=0;" edge="1" target="Y-8gsAqGTMaJMT4dQ_MY-19" parent="Y-8gsAqGTMaJMT4dQ_MY-18">
          <mxGeometry relative="1" as="geometry">
            <mxPoint x="60" y="80" as="sourcePoint"/>
            <Array as="points">
              <mxPoint x="85" y="80"/>
            </Array>
          </mxGeometry>
        </mxCell>
        <mxCell id="Y-8gsAqGTMaJMT4dQ_MY-22" value="" style="html=1;points=[];perimeter=orthogonalPerimeter;" vertex="1" parent="Y-8gsAqGTMaJMT4dQ_MY-18">
          <mxGeometry x="55" y="170" width="10" height="70" as="geometry"/>
        </mxCell>
        <mxCell id="Y-8gsAqGTMaJMT4dQ_MY-26" value="new" style="html=1;verticalAlign=bottom;endArrow=block;" edge="1" parent="Y-8gsAqGTMaJMT4dQ_MY-18">
          <mxGeometry width="80" relative="1" as="geometry">
            <mxPoint x="63" y="170" as="sourcePoint"/>
            <mxPoint x="333" y="170" as="targetPoint"/>
          </mxGeometry>
        </mxCell>
        <mxCell id="Y-8gsAqGTMaJMT4dQ_MY-21" value="RedisService" style="shape=umlLifeline;perimeter=lifelinePerimeter;whiteSpace=wrap;html=1;container=1;collapsible=0;recursiveResize=0;outlineConnect=0;" vertex="1" parent="1">
          <mxGeometry x="230" y="1630" width="100" height="480" as="geometry"/>
        </mxCell>
        <mxCell id="Y-8gsAqGTMaJMT4dQ_MY-24" value="" style="html=1;points=[];perimeter=orthogonalPerimeter;" vertex="1" parent="Y-8gsAqGTMaJMT4dQ_MY-21">
          <mxGeometry x="45" y="220" width="10" height="80" as="geometry"/>
        </mxCell>
        <mxCell id="Y-8gsAqGTMaJMT4dQ_MY-27" value="innerExecute" style="html=1;verticalAlign=bottom;endArrow=block;entryX=0.138;entryY=0.009;entryDx=0;entryDy=0;entryPerimeter=0;" edge="1" parent="Y-8gsAqGTMaJMT4dQ_MY-21" target="Y-8gsAqGTMaJMT4dQ_MY-28">
          <mxGeometry width="80" relative="1" as="geometry">
            <mxPoint x="50" y="240" as="sourcePoint"/>
            <mxPoint x="130" y="240" as="targetPoint"/>
          </mxGeometry>
        </mxCell>
        <mxCell id="Y-8gsAqGTMaJMT4dQ_MY-34" value="" style="html=1;points=[];perimeter=orthogonalPerimeter;" vertex="1" parent="Y-8gsAqGTMaJMT4dQ_MY-21">
          <mxGeometry x="45" y="389.93" width="10" height="40" as="geometry"/>
        </mxCell>
        <mxCell id="Y-8gsAqGTMaJMT4dQ_MY-35" value="postExecStepCmds" style="edgeStyle=orthogonalEdgeStyle;html=1;align=left;spacingLeft=2;endArrow=block;rounded=0;entryX=1;entryY=0;" edge="1" target="Y-8gsAqGTMaJMT4dQ_MY-34" parent="Y-8gsAqGTMaJMT4dQ_MY-21">
          <mxGeometry relative="1" as="geometry">
            <mxPoint x="50" y="369.93" as="sourcePoint"/>
            <Array as="points">
              <mxPoint x="75" y="369.93"/>
            </Array>
          </mxGeometry>
        </mxCell>
        <mxCell id="Y-8gsAqGTMaJMT4dQ_MY-36" value="callSuccess" style="html=1;verticalAlign=bottom;endArrow=block;entryX=0.207;entryY=0.001;entryDx=0;entryDy=0;entryPerimeter=0;" edge="1" parent="Y-8gsAqGTMaJMT4dQ_MY-21" target="Y-8gsAqGTMaJMT4dQ_MY-37">
          <mxGeometry width="80" relative="1" as="geometry">
            <mxPoint x="50" y="420" as="sourcePoint"/>
            <mxPoint x="130" y="420" as="targetPoint"/>
          </mxGeometry>
        </mxCell>
        <mxCell id="Y-8gsAqGTMaJMT4dQ_MY-25" value="RedisTransactionDomainExecutor" style="html=1;points=[];perimeter=orthogonalPerimeter;shape=umlLifeline;participant=label;fontFamily=Helvetica;fontSize=12;fontColor=#000000;align=center;strokeColor=#000000;fillColor=#ffffff;recursiveResize=0;container=1;collapsible=0;" vertex="1" parent="1">
          <mxGeometry x="360" y="1800" width="190" height="570" as="geometry"/>
        </mxCell>
        <mxCell id="Y-8gsAqGTMaJMT4dQ_MY-28" value="" style="html=1;points=[];perimeter=orthogonalPerimeter;" vertex="1" parent="Y-8gsAqGTMaJMT4dQ_MY-25">
          <mxGeometry x="90" y="70" width="10" height="50" as="geometry"/>
        </mxCell>
        <mxCell id="Y-8gsAqGTMaJMT4dQ_MY-29" value="" style="html=1;points=[];perimeter=orthogonalPerimeter;" vertex="1" parent="Y-8gsAqGTMaJMT4dQ_MY-25">
          <mxGeometry x="90" y="159.93" width="10" height="40" as="geometry"/>
        </mxCell>
        <mxCell id="Y-8gsAqGTMaJMT4dQ_MY-30" value="execute" style="edgeStyle=orthogonalEdgeStyle;html=1;align=left;spacingLeft=2;endArrow=block;rounded=0;entryX=1;entryY=0;" edge="1" target="Y-8gsAqGTMaJMT4dQ_MY-29" parent="Y-8gsAqGTMaJMT4dQ_MY-25">
          <mxGeometry relative="1" as="geometry">
            <mxPoint x="95" y="139.93" as="sourcePoint"/>
            <Array as="points">
              <mxPoint x="120" y="139.93"/>
            </Array>
          </mxGeometry>
        </mxCell>
        <mxCell id="Y-8gsAqGTMaJMT4dQ_MY-33" value="execDomainCmd" style="html=1;verticalAlign=bottom;endArrow=block;entryX=0.224;entryY=0.009;entryDx=0;entryDy=0;entryPerimeter=0;" edge="1" parent="Y-8gsAqGTMaJMT4dQ_MY-25" target="Y-8gsAqGTMaJMT4dQ_MY-32">
          <mxGeometry width="80" relative="1" as="geometry">
            <mxPoint x="100" y="183" as="sourcePoint"/>
            <mxPoint x="180" y="183" as="targetPoint"/>
          </mxGeometry>
        </mxCell>
        <mxCell id="Y-8gsAqGTMaJMT4dQ_MY-37" value="" style="html=1;points=[];perimeter=orthogonalPerimeter;" vertex="1" parent="Y-8gsAqGTMaJMT4dQ_MY-25">
          <mxGeometry x="90" y="250" width="10" height="40" as="geometry"/>
        </mxCell>
        <mxCell id="Y-8gsAqGTMaJMT4dQ_MY-38" value="" style="html=1;points=[];perimeter=orthogonalPerimeter;" vertex="1" parent="Y-8gsAqGTMaJMT4dQ_MY-25">
          <mxGeometry x="90" y="340" width="10" height="40" as="geometry"/>
        </mxCell>
        <mxCell id="Y-8gsAqGTMaJMT4dQ_MY-39" value="handlerResult" style="edgeStyle=orthogonalEdgeStyle;html=1;align=left;spacingLeft=2;endArrow=block;rounded=0;entryX=1;entryY=0;" edge="1" target="Y-8gsAqGTMaJMT4dQ_MY-38" parent="Y-8gsAqGTMaJMT4dQ_MY-25">
          <mxGeometry relative="1" as="geometry">
            <mxPoint x="95" y="320" as="sourcePoint"/>
            <Array as="points">
              <mxPoint x="120" y="320"/>
            </Array>
          </mxGeometry>
        </mxCell>
        <mxCell id="Y-8gsAqGTMaJMT4dQ_MY-40" value="" style="html=1;points=[];perimeter=orthogonalPerimeter;" vertex="1" parent="Y-8gsAqGTMaJMT4dQ_MY-25">
          <mxGeometry x="90" y="420" width="10" height="40" as="geometry"/>
        </mxCell>
        <mxCell id="Y-8gsAqGTMaJMT4dQ_MY-41" value="sendConsumerTopic" style="edgeStyle=orthogonalEdgeStyle;html=1;align=left;spacingLeft=2;endArrow=block;rounded=0;entryX=1;entryY=0;" edge="1" target="Y-8gsAqGTMaJMT4dQ_MY-40" parent="Y-8gsAqGTMaJMT4dQ_MY-25">
          <mxGeometry relative="1" as="geometry">
            <mxPoint x="95" y="400" as="sourcePoint"/>
            <Array as="points">
              <mxPoint x="120" y="400"/>
            </Array>
          </mxGeometry>
        </mxCell>
        <mxCell id="Y-8gsAqGTMaJMT4dQ_MY-42" value="" style="html=1;points=[];perimeter=orthogonalPerimeter;" vertex="1" parent="Y-8gsAqGTMaJMT4dQ_MY-25">
          <mxGeometry x="90" y="510" width="10" height="40" as="geometry"/>
        </mxCell>
        <mxCell id="Y-8gsAqGTMaJMT4dQ_MY-43" value="sendEventSource" style="edgeStyle=orthogonalEdgeStyle;html=1;align=left;spacingLeft=2;endArrow=block;rounded=0;entryX=1;entryY=0;" edge="1" target="Y-8gsAqGTMaJMT4dQ_MY-42" parent="Y-8gsAqGTMaJMT4dQ_MY-25">
          <mxGeometry relative="1" as="geometry">
            <mxPoint x="95" y="490" as="sourcePoint"/>
            <Array as="points">
              <mxPoint x="120" y="490"/>
            </Array>
          </mxGeometry>
        </mxCell>
        <mxCell id="Y-8gsAqGTMaJMT4dQ_MY-45" value="send" style="html=1;verticalAlign=bottom;endArrow=block;" edge="1" parent="Y-8gsAqGTMaJMT4dQ_MY-25" target="Y-8gsAqGTMaJMT4dQ_MY-44">
          <mxGeometry width="80" relative="1" as="geometry">
            <mxPoint x="100" y="530" as="sourcePoint"/>
            <mxPoint x="180" y="530" as="targetPoint"/>
          </mxGeometry>
        </mxCell>
        <mxCell id="Y-8gsAqGTMaJMT4dQ_MY-23" value="doExecWithOutTranscation&lt;br&gt;execStepCmds" style="html=1;verticalAlign=bottom;endArrow=block;entryX=0.19;entryY=-0.003;entryDx=0;entryDy=0;entryPerimeter=0;" edge="1" parent="1">
          <mxGeometry width="80" relative="1" as="geometry">
            <mxPoint x="92.00000000000023" y="1848.7600000000002" as="sourcePoint"/>
            <mxPoint x="276.9000000000001" y="1848.7600000000002" as="targetPoint"/>
          </mxGeometry>
        </mxCell>
        <mxCell id="Y-8gsAqGTMaJMT4dQ_MY-31" value="DomainExecutor" style="shape=umlLifeline;perimeter=lifelinePerimeter;whiteSpace=wrap;html=1;container=1;collapsible=0;recursiveResize=0;outlineConnect=0;" vertex="1" parent="1">
          <mxGeometry x="580" y="1630" width="100" height="490" as="geometry"/>
        </mxCell>
        <mxCell id="Y-8gsAqGTMaJMT4dQ_MY-32" value="" style="html=1;points=[];perimeter=orthogonalPerimeter;" vertex="1" parent="Y-8gsAqGTMaJMT4dQ_MY-31">
          <mxGeometry x="45" y="353" width="10" height="80" as="geometry"/>
        </mxCell>
        <mxCell id="Y-8gsAqGTMaJMT4dQ_MY-44" value="MQProducer" style="shape=umlLifeline;perimeter=lifelinePerimeter;whiteSpace=wrap;html=1;container=1;collapsible=0;recursiveResize=0;outlineConnect=0;" vertex="1" parent="1">
          <mxGeometry x="726.55" y="1630" width="100" height="1050" as="geometry"/>
        </mxCell>
        <mxCell id="Y-8gsAqGTMaJMT4dQ_MY-46" value="" style="html=1;points=[];perimeter=orthogonalPerimeter;" vertex="1" parent="Y-8gsAqGTMaJMT4dQ_MY-44">
          <mxGeometry x="45" y="700" width="10" height="210" as="geometry"/>
        </mxCell>
        <mxCell id="Y-8gsAqGTMaJMT4dQ_MY-47" value="" style="html=1;points=[];perimeter=orthogonalPerimeter;" vertex="1" parent="Y-8gsAqGTMaJMT4dQ_MY-44">
          <mxGeometry x="45.00000000000004" y="830" width="10" height="40" as="geometry"/>
        </mxCell>
        <mxCell id="Y-8gsAqGTMaJMT4dQ_MY-48" value="sendRecord" style="edgeStyle=orthogonalEdgeStyle;html=1;align=left;spacingLeft=2;endArrow=block;rounded=0;entryX=1;entryY=0;" edge="1" target="Y-8gsAqGTMaJMT4dQ_MY-47" parent="Y-8gsAqGTMaJMT4dQ_MY-44">
          <mxGeometry relative="1" as="geometry">
            <mxPoint x="50.00000000000004" y="810" as="sourcePoint"/>
            <Array as="points">
              <mxPoint x="75.00000000000004" y="810"/>
            </Array>
          </mxGeometry>
        </mxCell>
        <mxCell id="Y-8gsAqGTMaJMT4dQ_MY-55" value="addAnnotation" style="html=1;verticalAlign=bottom;endArrow=block;" edge="1" parent="Y-8gsAqGTMaJMT4dQ_MY-44" target="Y-8gsAqGTMaJMT4dQ_MY-54">
          <mxGeometry width="80" relative="1" as="geometry">
            <mxPoint x="54.55000000000004" y="860" as="sourcePoint"/>
            <mxPoint x="134.55000000000007" y="860" as="targetPoint"/>
          </mxGeometry>
        </mxCell>
        <mxCell id="Y-8gsAqGTMaJMT4dQ_MY-57" value="" style="html=1;points=[];perimeter=orthogonalPerimeter;" vertex="1" parent="Y-8gsAqGTMaJMT4dQ_MY-44">
          <mxGeometry x="45.450000000000045" y="750" width="10" height="40" as="geometry"/>
        </mxCell>
        <mxCell id="Y-8gsAqGTMaJMT4dQ_MY-58" value="kafkaProducer.send(record)" style="edgeStyle=orthogonalEdgeStyle;html=1;align=left;spacingLeft=2;endArrow=block;rounded=0;entryX=1;entryY=0;" edge="1" target="Y-8gsAqGTMaJMT4dQ_MY-57" parent="Y-8gsAqGTMaJMT4dQ_MY-44">
          <mxGeometry relative="1" as="geometry">
            <mxPoint x="50.450000000000045" y="730" as="sourcePoint"/>
            <Array as="points">
              <mxPoint x="75.45000000000005" y="730"/>
            </Array>
          </mxGeometry>
        </mxCell>
        <mxCell id="Y-8gsAqGTMaJMT4dQ_MY-50" value="&lt;span style=&quot;white-space: nowrap&quot;&gt;TraceTransfer&lt;/span&gt;" style="shape=umlLifeline;perimeter=lifelinePerimeter;whiteSpace=wrap;html=1;container=1;collapsible=0;recursiveResize=0;outlineConnect=0;" vertex="1" parent="1">
          <mxGeometry x="920" y="1630" width="100" height="1040" as="geometry"/>
        </mxCell>
        <mxCell id="Y-8gsAqGTMaJMT4dQ_MY-54" value="" style="html=1;points=[];perimeter=orthogonalPerimeter;" vertex="1" parent="Y-8gsAqGTMaJMT4dQ_MY-50">
          <mxGeometry x="44.55" y="860" width="10" height="80" as="geometry"/>
        </mxCell>
      </root>
    </mxGraphModel>
  </diagram>
</mxfile>
